# xmcd
#
# Track frame offsets:
#	150
#	17578
#	41008
#	75995
#	96230
#	110523
#	129740
#	150670
#	167325
#
# Disc length: 2423 seconds
#
# Revision: 4
# Processed by: cddbd v1.5.2PL0 Copyright (c) Steve Scherf et al.
# Submitted via: audiograbber 1.83.01
#
DISCID=61097509
DTITLE=Peter Green - In The Skies
DYEAR=1978
DGENRE=Rock
TTITLE0=In The Skies
TTITLE1=Slabo Day
TTITLE2=A Fool No More
TTITLE3=Tribal Dance
TTITLE4=Seven Stars
TTITLE5=Funky Chunk
TTITLE6=Just For You
TTITLE7=Proud Pinto
TTITLE8=Apostle
EXTD=
EXTT0=
EXTT1=
EXTT2=
EXTT3=
EXTT4=
EXTT5=
EXTT6=
EXTT7=
EXTT8=
PLAYORDER=
